<?xml version="1.0" standalone="no"?>
<!DOCTYPE svg PUBLIC "-//W3C//DTD SVG 20010904//EN"
 "http://www.w3.org/TR/2001/REC-SVG-20010904/DTD/svg10.dtd">
<svg version="1.0" xmlns="http://www.w3.org/2000/svg"
 width="831.000000pt" height="831.000000pt" viewBox="0 0 831.000000 831.000000"
 preserveAspectRatio="xMidYMid meet">
<metadata>
Created by potrace 1.11, written by Peter Selinger 2001-2013
</metadata>
<g transform="translate(0.000000,831.000000) scale(0.100000,-0.100000)"
fill="#000000" stroke="none">
<path d="M3795 7040 c-248 -23 -694 -109 -895 -173 -152 -49 -224 -79 -399
-169 -86 -45 -170 -88 -187 -97 -17 -9 -108 -63 -203 -121 -399 -243 -853
-624 -1090 -915 -286 -352 -481 -617 -481 -654 0 -7 -23 -54 -52 -105 -117
-208 -202 -400 -252 -571 -14 -49 -35 -117 -46 -150 -31 -96 -50 -190 -65
-330 -8 -71 -21 -195 -31 -275 -13 -114 -15 -188 -10 -350 12 -340 19 -416 52
-545 14 -55 34 -131 43 -170 33 -133 101 -307 187 -476 111 -220 192 -339 361
-528 l32 -36 70 70 c39 38 71 72 71 76 0 3 -29 50 -65 105 -149 225 -230 450
-285 789 -48 294 -55 471 -30 780 19 246 24 292 50 443 26 151 93 388 144 511
15 33 33 82 42 107 32 94 183 383 266 509 82 124 112 165 302 405 150 189 296
344 506 539 190 176 305 261 582 429 340 206 907 421 1153 436 33 3 114 12
180 20 180 25 496 23 647 -3 210 -37 335 -78 443 -146 136 -86 222 -170 277
-270 64 -118 78 -173 79 -325 0 -144 -20 -224 -98 -380 l-68 -135 -55 2 c-213
10 -381 4 -495 -16 -413 -72 -726 -198 -1002 -403 -242 -179 -547 -548 -673
-811 -77 -161 -128 -309 -171 -497 -31 -135 -38 -410 -14 -536 24 -121 84
-259 169 -386 41 -63 177 -196 241 -236 22 -14 49 -33 60 -43 11 -9 56 -37
100 -63 232 -133 498 -189 752 -156 153 20 412 107 541 183 35 20 65 37 68 37
21 0 223 163 293 235 94 99 248 319 280 402 50 128 63 208 63 398 0 161 -4
196 -30 325 -53 257 -123 399 -324 658 l-49 62 20 45 c20 46 65 115 113 175
25 31 56 72 208 267 23 29 46 53 52 53 17 0 198 -133 250 -184 63 -61 158
-207 223 -341 88 -183 89 -190 89 -430 0 -213 -7 -290 -54 -550 -11 -60 -36
-200 -56 -310 -55 -308 -58 -333 -46 -361 11 -23 16 -24 95 -24 116 0 117 1
142 195 46 359 177 820 305 1081 132 268 293 477 463 599 138 100 349 194 527
236 76 18 259 16 350 -5 90 -20 230 -89 313 -154 80 -63 180 -182 217 -256 37
-79 69 -195 71 -269 3 -62 -8 -81 -44 -83 -39 -2 -182 -43 -276 -79 -137 -53
-221 -108 -336 -220 -98 -95 -106 -106 -160 -220 -74 -157 -111 -307 -95 -393
19 -107 73 -146 205 -146 159 0 349 86 542 248 179 148 253 257 326 479 101
302 64 608 -106 882 -65 104 -180 236 -256 293 -231 174 -540 243 -819 183
-188 -41 -402 -134 -569 -247 -119 -81 -205 -154 -325 -276 -104 -105 -120
-117 -138 -108 -11 6 -20 14 -20 18 0 15 -88 141 -161 232 -114 142 -246 262
-402 365 -133 87 -137 91 -131 119 3 16 15 43 25 61 27 45 60 148 100 305 31
125 34 146 33 280 -1 113 -6 162 -23 224 -63 237 -203 410 -476 592 -192 128
-462 228 -710 264 -108 15 -340 20 -450 10z m1085 -1943 c0 -22 -257 -388
-311 -443 -36 -37 -47 -42 -101 -48 -152 -16 -246 -108 -248 -243 0 -36 6 -50
37 -84 47 -52 101 -79 156 -79 84 0 202 53 248 111 17 22 36 39 43 39 16 0
144 -186 190 -277 124 -244 144 -445 69 -693 -63 -207 -181 -370 -378 -518
-219 -164 -589 -302 -811 -302 -207 0 -523 123 -653 253 -107 109 -151 188
-182 332 -38 180 -18 352 72 629 36 110 139 325 206 428 96 148 304 380 433
483 181 144 330 228 561 318 204 80 327 102 562 102 59 0 107 -4 107 -8z
m3186 -1132 c12 -81 -74 -285 -172 -406 -90 -112 -284 -239 -412 -269 -58 -13
-137 -9 -155 9 -6 6 -13 39 -15 74 -3 55 1 72 37 156 58 133 91 179 187 264
114 101 305 192 454 216 61 10 68 6 76 -44z"/>
</g>
</svg>
